<?xml version="1.0" encoding="utf-8"?>
<svg xmlns="http://www.w3.org/2000/svg" viewBox="0 0 500 500" xmlns:bx="https://boxy-svg.com" width="500px" height="500px"><defs><bx:export><bx:file format="svg" path="MechaFusion - Logo Vectorizat.svg"/></bx:export></defs><title>MechaFusion - Logo Vectorizat</title><g id="Background" transform="matrix(0.938096, 0, 0, 0.938096, -32.086419, 37.526651)" style=""><path id="Path 0" class="s0" d="m89 447.8c0 0.4 0.4 1.2 0.8 1.8 0.4 0.6 2.3 1.5 4.2 1.8 2.5 0.5 4.2 0.2 6-1 1.7-1.2 3.9-1.6 7.1-1.3 2.5 0.2 5.4 1.1 6.4 1.9 1.1 1 3.3 1.4 5.9 1.2 2.3-0.2 4.6-0.8 5.1-1.3 0.6-0.6 3.7-0.7 7-0.4 3.3 0.4 11.4 0.8 18 1 6.6 0.3 14.7 0.4 18 0.3 3.3 0 8.6 0 11.8 0.1 3.1 0 8.4 0.1 11.7 0.1 3.3 0 8.7 0 12 0 3.3 0 8.7 0 12 0 3.3 0 8.7 0 12 0 3.3 0 8.4 0 11.3 0.1 2.8 0.1 7.7-0.2 10.7-0.6 3.2-0.5 6.3-0.4 7.5 0.2q2 1 12.7-0.1c7.8-0.8 11.4-0.8 13.5 0 1.9 0.8 4.1 0.8 6.8 0.2 2.2-0.6 6.5-1.2 9.5-1.5 3.2-0.2 5.9 0 6.5 0.7 0.6 0.6 3 1 5.5 1 2.8 0 5.2-0.7 6.4-1.8 1.2-1.1 3.3-1.7 6.5-1.6 2.5 0.1 5.7 0.8 7.1 1.7 1.6 1.1 3.5 1.5 5.5 1.1 2.2-0.5 2.9-1.1 2.8-2.5-0.3-1.9-3.4-1.9-125.3-1.9-68.8 0-125 0.3-125 0.7z" style="fill: rgb(246, 202, 60);"/><path id="Path 1" class="s1" d="m51.7 433.8c-1.5 0.9-3.4 3.2-4.2 4.9-0.8 1.8-1.5 4.2-1.5 5.3 0 1.5 0.8 2.1 3.2 2.4 1.8 0.2 72.1 0.4 156.3 0.5 84.1 0.1 156.7-0.2 161.3-0.6l8.2-0.8c0-4.6-0.7-7-1.5-8.3-0.8-1.2-2.9-2.9-4.5-3.7-2.6-1.3-22.3-1.5-158.8-1.5-145.6 0.1-155.9 0.2-158.5 1.8z" style="fill: rgb(36, 32, 32);"/><path id="Path 2" class="s0" d="m134 431.7c42.1 0.2 111.1 0.2 153.5 0 42.4-0.1 7.9-0.2-76.5-0.2-84.4 0-119.1 0.1-77 0.2z" style="fill: rgb(246, 202, 60);"/><path id="Path 3" class="s1" d="m335.6 419.4c-1.4 1.4-2.5 3.7-2.6 5.1 0 1.4-0.7 2.7-1.5 3-0.8 0.3-1.3 1-1 1.5 0.3 0.6 5.3 1 12 1 9.6 0 11.5-0.3 11.5-1.5 0-0.8-0.9-1.7-2-2q-2-0.5-2-3c0-1.5-1-3.3-2.5-4.5-1.4-1.1-3-1.8-3.5-1.5-0.6 0.3-1 1.6-1 3 0 1.6-0.6 2.5-1.5 2.5-1 0-1.5-0.9-1.4-2.4 0.1-1.4-0.4-2.8-0.9-3.1-0.6-0.3-2.2 0.5-3.6 1.9z" style="fill: rgb(36, 32, 32);"/><path id="Path 4" class="s1" d="m71.5 419.5c-1.3 1.3-2.4 3.6-2.5 5 0 1.5-0.7 2.7-1.8 3q-1.7 0.5-0.7 1.5c0.6 0.6 5.9 0.9 12.4 0.8 8.1-0.2 11.5-0.7 11.8-1.6 0.2-0.7-0.7-1.2-2.2-1.2-1.8 0-2.4-0.4-2-1.5 0.3-0.8-0.2-2.9-1-4.5-0.9-1.8-2.3-3-3.5-3q-2 0-2.5 2.5c-0.3 1.4-1.2 2.5-2 2.5q-1.5 0-1.5-3c0-1.6-0.5-3-1-3-0.6 0-2.2 1.1-3.5 2.5z" style="fill: rgb(36, 32, 32);"/><path id="Path 5" fill-rule="evenodd" class="s1" d="m210.5 327c37.9 0 69.5 0.4 70.2 0.8 0.6 0.4 8.9 18 35.4 77.7l-0.6 24h-210l0.1-25 8-18c4.4-9.9 8.8-19.6 9.7-21.5 0.8-1.9 4.8-10.9 8.8-20 3.9-9.1 7.7-16.8 8.3-17.2 0.6-0.4 32.2-0.8 70.1-0.8zm48.5 8.5c0 0.3 4.4 7.2 9.8 15.5 5.3 8.2 11.8 18.2 14.4 22.2 2.6 4 6 9.7 7.7 12.5 2.9 5 3.3 5.3 7.1 5.3 2.2 0 4-0.2 4-0.5 0-0.3-0.8-2.4-1.9-4.8-1-2.3-4.4-10.1-7.6-17.2-3.1-7.1-6.7-15.3-8-18-1.3-2.8-3.3-7.3-4.6-10-1.2-2.8-2.2-5.3-2.3-5.8 0-0.4-0.2-0.6-0.5-0.5-0.4 0.1-4.5 0.3-9.3 0.5-4.9 0.2-8.8 0.5-8.8 0.8z" style="fill: rgb(36, 32, 32);"/><path id="Path 6" class="s0" d="m263.5 334.7c2.8 0.2 6.8 0.2 9 0 2.2-0.2-0.1-0.3-5-0.3-4.9 0-6.8 0.1-4 0.3z" style="fill: rgb(246, 202, 60);"/><path id="Path 7" class="s1" d="m169 307.5v15.5l83.5-0.5c0.6-23.7 0.3-27.3-0.7-28.1-1-0.9-3.8 0.5-12.8 6.5-7.9 5.3-13.8 8.4-19 10-6.1 2-8.7 2.3-14 1.8-3.6-0.3-8.5-1.4-11-2.4-2.5-0.9-6.1-2.7-8-3.8-1.9-1.2-5.2-3.9-7.4-6.1-2.1-2.1-4.5-4.9-5.2-6.1-0.8-1.3-2.3-2.3-3.4-2.3-1.9 0-2 0.7-2 15.5z" style="fill: rgb(36, 32, 32);"/><path id="Path 32" fill-rule="evenodd" class="s0" d="m320.8 138.1c8.6-0.1 13.6 0.4 16.9 1.5 2.7 0.9 7.5 2.9 10.8 4.6 3.3 1.7 6.2 3.3 6.5 3.7 0.3 0.3 2.3 2.1 4.5 4 2.2 1.9 5.7 5.5 7.7 8 2 2.5 4.8 6.7 6.2 9.4 1.4 2.6 3.5 8.2 4.6 12.5 1.1 4.2 2 10.3 2 13.5 0 3.1-0.7 9-1.6 13-0.9 3.9-2.8 9.7-4.2 12.7-1.4 3-4.5 8-6.9 11-2.5 3-7.2 7.6-10.6 10.2-3.4 2.6-7.1 5.2-8.2 5.7-1.1 0.5-3.6 1.6-5.5 2.5-1.9 0.8-6 2-9 2.6-3 0.5-8.9 1-13 1-4.1-0.1-9.8-0.5-12.5-1-3.4-0.5-5.7-0.4-7.1 0.3-1.2 0.7-10.4 6.8-20.6 13.7-10.2 6.9-27 18.2-37.4 25.2-11.3 7.6-20.9 13.3-23.9 14.2-2.8 0.9-7.5 1.6-10.5 1.6-3 0-8-0.7-11-1.6-3-0.9-6.6-2.3-8-3.2-1.4-0.9-4.4-3.4-6.8-5.6-2.5-2.3-5.7-6.9-7.4-10.6-2.3-4.7-3.2-8.4-3.6-13.5-0.3-5.4 0.1-8.3 1.6-12.5 1.2-3 3.6-7.7 5.5-10.5 2.7-4 6.8-7.3 20.8-16.7 9.6-6.5 18.2-12.3 19.3-13 1-0.7 2.9-2.1 4.2-3 1.3-1 2.7-1.8 3.1-1.8 0.5 0 3-1.8 5.8-3.8 2.7-2.1 10.6-7.6 30-20.4l1.9-8.2c1-4.4 3.1-10.7 4.7-13.8 1.6-3.2 3.9-7 5.1-8.5 1.3-1.6 4.4-4.9 7-7.5 2.7-2.7 6.7-6 9-7.5 2.4-1.5 7.4-3.9 11.3-5.4 6.3-2.5 8.3-2.8 19.2-2.8zm-15.3 16.2c-0.4 0.4-1.4 0.7-2.3 0.7-0.9 0-4.5 2.1-8.1 4.8-3.6 2.7-8.2 7.3-10.3 10.3-2 3-4.6 8.3-5.7 11.9-1.1 3.6-2 9.3-2 12.8 0 3.4 0.5 8.3 1.1 11 0.6 2.6 2.1 6.7 3.2 9.2 1.2 2.5 5.3 7.7 9.2 11.6 5.6 5.6 8.4 7.6 14 9.8 4 1.6 9.8 3.1 13.5 3.4 3.7 0.3 8.7 0 11.5-0.7 2.7-0.7 7.7-2.5 11-4.1 3.3-1.5 8.1-4.9 10.7-7.4 2.7-2.5 4.8-4.8 4.8-5.1 0-0.3 0.8-1.4 1.7-2.4 1-1.1 2.9-4.8 4.3-8.3 2.1-5.3 2.5-8 2.5-16.8 0-9.5-0.3-11.1-2.9-17-1.7-3.6-4.1-7.8-5.5-9.4-1.4-1.7-3.7-4.1-5.1-5.4-1.4-1.3-3.9-3.5-5.5-4.8-1.6-1.3-6.1-3.5-10-4.9-5.3-1.9-8.9-2.4-15-2.4-4.4 0-9.4 0.6-11.2 1.2-1.7 0.7-3.5 1.5-3.9 2zm-126.9 115.2c-0.6 3.9-0.3 6.7 1.5 12.5 1.8 6 3.2 8.5 7.1 12.5l4.8 5c-2.2-9.3-2.9-14.9-2.9-18.5 0-3.6 0.7-9.6 1.5-13.5 0.8-3.9 1.5-7.1 1.5-7.2 0-0.2-2.5-0.3-5.5-0.3-4.8 0-5.7 0.3-6.4 2.3-0.5 1.2-1.2 4.5-1.6 7.2z" style="fill: rgb(246, 202, 60);"/><path id="Path 33" class="s1" d="m308 164.1c-2.5 1.1-6.3 3.5-8.4 5.2-2.2 1.8-5.1 5-6.6 7.2-1.5 2.2-3.6 6.7-4.5 10-1.3 4.4-1.6 7.6-1.1 12 0.4 3.3 1.8 8.4 3.1 11.3 1.4 2.8 4.7 7.3 7.3 10 3 2.9 6.9 5.6 10.5 7 4 1.5 7.8 2.2 12.7 2.2 4.9 0 8.7-0.7 12.7-2.2 3.1-1.3 7.6-4.1 10.1-6.3 2.6-2.3 5.7-6.7 7.6-10.5 2.7-5.6 3.1-7.5 3.1-14.5-0.1-6.7-0.5-9-3-14.4-1.8-3.8-4.7-8-7.2-10.2-2.4-2.2-6.7-5-9.5-6.4-2.9-1.4-6.1-2.5-7-2.5-1.7 0-1.8 1.7-1.8 22.5v22.5h-10c0-43.3-0.1-45-1.7-45-1 0-3.8 1-6.3 2.1z" style="fill: rgb(36, 32, 32);"/><path id="Path 34" class="s1" d="m425 76c0 4.9 0.1 5 3 5 2.9 0 3-0.1 3-5 0-4.9-0.1-5-3-5-2.9 0-3 0.1-3 5z" style="fill: rgb(36, 32, 32);"/><path id="Path 35" class="s0" d="m418.1 76.8c-0.1 18.6 0 19.2 1.9 19.2 1.8 0 2-0.7 2-6q0-6 1.5-7.5c0.9-0.9 1.5-3.4 1.5-6.2 0.1-3.1-0.5-5.3-1.5-6.3-0.9-0.8-1.6-2.2-1.6-3 0-0.8-0.8-3.3-1.8-5.5l-1.9-4z" style="fill: rgb(246, 202, 60);"/><path id="Path 36" class="s1" d="m418 56.3c0 0.1 0.8 2.2 1.9 4.7l2.1 4.5c0-8.8-0.3-9.5-2-9.5-1.1 0-2 0.1-2 0.3z" style="fill: rgb(36, 32, 32);"/><path id="Path 37" class="s0" d="m397.2 57.6l-0.2 2.9c-100.2-0.4-129.7-0.2-130.1 0.2-0.4 0.5 1.8 4.6 4.9 9.2 3.1 4.6 7.1 10.5 8.7 13.1 1.6 2.6 3.9 5.7 5 6.9l2 2.2 109.5-0.1c0.5 5.2 0.9 5.5 4.5 5.8 2.2 0.1 4.4-0.2 5-0.8 0.5-0.5 2-1 3.5-1 2.2 0 2.5-0.4 2.6-3.8 0.1-2 0.2-5.5 0.3-7.7 0.1-2.2-0.1-9.5-0.4-16.3l-0.5-12.2c-6.6 0-9.9-0.3-11.6-0.6-2.9-0.6-3.1-0.4-3.2 2.2z" style="fill: rgb(246, 202, 60);"/><path id="Path 38" fill-rule="evenodd" class="s0" d="m243.5 48.5c3.9 0.3 7.4 1.3 10 2.8 2.2 1.3 5.6 4.4 7.5 6.8 1.9 2.4 5.2 6.8 7.2 9.9 2.1 3 5.9 8.6 8.5 12.4 2.6 3.8 6.4 9.3 8.3 12.1 1.9 2.9 5.8 8.6 8.6 12.6 2.7 4.1 7.2 10.6 9.9 14.4 2.7 3.8 5.7 8.1 6.7 9.5 1 1.4 1.9 3.1 1.8 3.8 0 0.6-1.9 1.5-4.3 1.8-2.3 0.3-7.3 2-11.2 3.6-3.9 1.6-9 4.4-11.5 6.1-2.5 1.7-6.9 5.5-15 13.7l-13.6-19.8c-7.5-10.8-14.6-21-15.7-22.7-1.2-1.7-4.1-5.9-6.6-9.5-2.4-3.6-6.8-9.9-9.6-14-2.8-4.1-5.7-9.3-6.4-11.5-0.8-2.2-1.2-6.5-1-9.5 0.3-4.2 1.3-6.8 3.9-10.9 1.9-2.9 5.1-6.3 7-7.5 1.9-1.1 4.8-2.7 6.5-3.3 1.8-0.8 5.4-1.1 9-0.8zm-14.2 22.3c-1.4 4-1.5 5.4-0.4 9.2 0.7 2.5 2.2 5.5 3.4 6.7 1.2 1.3 4 2.7 6.2 3.2 2.8 0.7 5.3 0.6 8.4-0.2 2.8-0.8 5.3-2.3 6.8-4.2 1.2-1.7 2.7-4.8 3.3-7 1-3.5 0.8-4.6-1.2-8.4-1.3-2.5-3.4-5.3-4.8-6.4-1.4-1-4.5-2-7-2.3-3.6-0.4-5.3 0-8.8 2.1-3.3 1.9-4.6 3.6-5.9 7.3z" style="fill: rgb(246, 202, 60);"/><path id="Path 39" class="s1" d="m239.5 69.1c-1.1 0.5-2.6 2-3.3 3.4-0.6 1.4-1.2 3.3-1.2 4.3-0.1 0.9 0.8 2.8 1.9 4.2 1.4 1.9 2.9 2.5 5.6 2.5 2.7 0 4.2-0.6 5.6-2.5 1.1-1.4 2-4 1.9-5.7 0-2.4-0.8-3.9-2.7-5.3-1.6-1.2-3.5-2-4.3-2-0.8 0.1-2.4 0.6-3.5 1.1z" style="fill: rgb(36, 32, 32);"/><path id="Path 40" fill-rule="evenodd" class="s1" d="m491.1 13c0.5 0 8 3.7 16.6 8.2 8.7 4.5 22.1 11.4 43.8 22.7l0.5 15.1h-3.5c-2.2 0-3.7-0.5-4-1.5-0.3-0.8-0.5-2.8-0.5-4.5 0-2.7-0.3-3-3-3-2.7 0-3 0.3-3 3 0 1.7-0.2 3.7-0.5 4.5-0.3 0.8-1.6 1.5-3 1.5-2.4 0-2.5-0.3-2.7-5.7-0.1-3.2-0.2-6.6-0.2-7.5-0.1-1.6-1.7-1.8-38.6-1.8l-9 16v34.5l4.2 7.5c2.2 4.1 4.3 7.7 4.5 8 0.3 0.3 9 0.5 19.3 0.5 18.1 0 18.9-0.1 19.4-2 0.3-1.1 0.6-4.4 0.6-7.2 0-5.2 0.1-5.3 2.7-5 2.4 0.2 2.8 0.7 3 3.5 0.3 2.8 0.6 3.2 3.3 3.2 2.7 0 3-0.4 3.2-3.2 0.3-3 0.6-3.3 7.8-3.8v14.5l-10.2 5.2c-5.7 2.9-19.3 10-30.3 15.7-11 5.8-20.2 10.6-20.5 10.6-0.3 0-6.8-8.1-14.5-18.2-7.7-10-15.7-20.6-17.8-23.5-3.5-5-4-5.3-8-5.3-2.3 0-6.6-0.4-14.7-1.5v-16.2c0-13.8 0.2-16.3 1.5-16.3 0.9 0 1.2-0.5 0.7-1.2-0.5-0.9 1.3-1 16.3 0.1l6.1-8.2c3.4-4.5 10-13.2 14.5-19.2 4.6-6.1 9.9-13 11.7-15.3 1.9-2.3 3.8-4.2 4.3-4.2zm-37.8 55.7c-1.2 1.5-2.4 4.3-2.7 6-0.3 1.8-0.1 4.8 0.5 6.5 0.7 1.8 2.1 4.3 3.3 5.6 1.1 1.2 3.7 2.7 5.6 3.3 1.9 0.6 4.9 0.9 6.5 0.6 1.8-0.4 4.6-2.3 6.9-4.9 3.6-4 3.9-4.6 3.5-9.5-0.3-3.7-1.1-5.8-2.9-7.8-1.4-1.5-3.2-3-4-3.5-0.8-0.4-2.6-1-4-1.3-1.4-0.3-4.3 0.1-6.5 0.8-2.2 0.8-5 2.7-6.2 4.2z" style="fill: rgb(36, 32, 32);"/><path id="Path 41" class="s0" d="m465.3 77.5c0 3.8 0.2 5.2 0.4 3 0.2-2.2 0.2-5.3 0-7-0.2-1.7-0.4 0.2-0.4 4z" style="fill: rgb(246, 202, 60);"/><path id="Path 42" class="s1" d="m466 77c0 4.4 0.4 8.2 1 8.5 0.6 0.3 2.1-0.6 3.5-2 1.6-1.6 2.5-3.6 2.5-5.8 0.1-1.7-0.8-4.4-2-6-1.1-1.5-2.7-2.7-3.5-2.7-1.2 0-1.5 1.6-1.5 8zm-10.1-4.8c-1.3 2.3-1.8 4.2-1.4 6.3 0.3 1.7 1.4 3.8 2.3 4.8 0.9 1 2.3 1.8 2.9 1.7 0.7 0 1.5-0.7 1.8-1.5 0.3-0.8 0.5-3.9 0.5-6.8 0-2.9-0.5-5.8-1.2-6.5-0.7-0.7-1.6-1.2-2.1-1.2-0.4 0-1.6 1.5-2.8 3.3z" style="fill: rgb(36, 32, 32);"/></g></svg>